<svg width="12" height="12" viewBox="0 0 12 12" fill="none" xmlns="http://www.w3.org/2000/svg">
<path d="M0.969364 0.969364C1.03903 0.899519 1.1218 0.844104 1.21291 0.806295C1.30403 0.768485 1.40171 0.749023 1.50036 0.749023C1.59901 0.749023 1.6967 0.768485 1.78781 0.806295C1.87893 0.844104 1.9617 0.899519 2.03136 0.969364L6.00036 4.93986L9.96936 0.969364C10.0391 0.899632 10.1219 0.844317 10.213 0.806579C10.3041 0.76884 10.4017 0.749416 10.5004 0.749416C10.599 0.749416 10.6966 0.76884 10.7877 0.806579C10.8788 0.844317 10.9616 0.899632 11.0314 0.969364C11.1011 1.0391 11.1564 1.12188 11.1941 1.21299C11.2319 1.3041 11.2513 1.40175 11.2513 1.50036C11.2513 1.59898 11.2319 1.69663 11.1941 1.78774C11.1564 1.87885 11.1011 1.96163 11.0314 2.03136L7.06086 6.00036L11.0314 9.96936C11.1011 10.0391 11.1564 10.1219 11.1941 10.213C11.2319 10.3041 11.2513 10.4017 11.2513 10.5004C11.2513 10.599 11.2319 10.6966 11.1941 10.7877C11.1564 10.8788 11.1011 10.9616 11.0314 11.0314C10.9616 11.1011 10.8788 11.1564 10.7877 11.1941C10.6966 11.2319 10.599 11.2513 10.5004 11.2513C10.4017 11.2513 10.3041 11.2319 10.213 11.1941C10.1219 11.1564 10.0391 11.1011 9.96936 11.0314L6.00036 7.06086L2.03136 11.0314C1.96163 11.1011 1.87885 11.1564 1.78774 11.1941C1.69663 11.2319 1.59898 11.2513 1.50036 11.2513C1.40175 11.2513 1.3041 11.2319 1.21299 11.1941C1.12188 11.1564 1.0391 11.1011 0.969364 11.0314C0.899632 10.9616 0.844317 10.8788 0.806579 10.7877C0.76884 10.6966 0.749416 10.599 0.749416 10.5004C0.749416 10.4017 0.76884 10.3041 0.806579 10.213C0.844317 10.1219 0.899632 10.0391 0.969364 9.96936L4.93986 6.00036L0.969364 2.03136C0.899519 1.9617 0.844104 1.87893 0.806295 1.78781C0.768485 1.6967 0.749023 1.59901 0.749023 1.50036C0.749023 1.40171 0.768485 1.30403 0.806295 1.21291C0.844104 1.1218 0.899519 1.03903 0.969364 0.969364Z" fill="white"/>
</svg>
