<svg width="15" height="15" viewBox="0 0 15 15" fill="none" xmlns="http://www.w3.org/2000/svg">
<path d="M13.8412 6.28613H9.34119V1.78613C9.34119 1.23395 8.89337 0.786133 8.34119 0.786133H7.34119C6.789 0.786133 6.34119 1.23395 6.34119 1.78613V6.28613H1.84119C1.289 6.28613 0.841187 6.73394 0.841187 7.28613V8.28613C0.841187 8.83832 1.289 9.28613 1.84119 9.28613H6.34119V13.7861C6.34119 14.3383 6.789 14.7861 7.34119 14.7861H8.34119C8.89337 14.7861 9.34119 14.3383 9.34119 13.7861V9.28613H13.8412C14.3934 9.28613 14.8412 8.83832 14.8412 8.28613V7.28613C14.8412 6.73394 14.3934 6.28613 13.8412 6.28613Z" fill="white"/>
</svg>
