<svg width="16" height="10" viewBox="0 0 16 10" fill="none" xmlns="http://www.w3.org/2000/svg">
<path d="M8 0.333008C7.38116 0.333008 6.78767 0.578841 6.35008 1.01643C5.9125 1.45401 5.66667 2.0475 5.66667 2.66634C5.66667 3.28518 5.9125 3.87867 6.35008 4.31626C6.78767 4.75384 7.38116 4.99967 8 4.99967C8.61884 4.99967 9.21233 4.75384 9.64992 4.31626C10.0875 3.87867 10.3333 3.28518 10.3333 2.66634C10.3333 2.0475 10.0875 1.45401 9.64992 1.01643C9.21233 0.578841 8.61884 0.333008 8 0.333008ZM8 1.66634C8.26522 1.66634 8.51957 1.7717 8.70711 1.95923C8.89464 2.14677 9 2.40112 9 2.66634C9 2.93156 8.89464 3.18591 8.70711 3.37345C8.51957 3.56098 8.26522 3.66634 8 3.66634C7.73478 3.66634 7.48043 3.56098 7.29289 3.37345C7.10536 3.18591 7 2.93156 7 2.66634C7 2.40112 7.10536 2.14677 7.29289 1.95923C7.48043 1.7717 7.73478 1.66634 8 1.66634ZM3.66667 2.33301C3.22464 2.33301 2.80072 2.5086 2.48816 2.82116C2.17559 3.13372 2 3.55765 2 3.99967C2 4.62634 2.35333 5.16634 2.86 5.45301C3.1 5.58634 3.37333 5.66634 3.66667 5.66634C3.96 5.66634 4.23333 5.58634 4.47333 5.45301C4.72 5.31301 4.92667 5.11301 5.08 4.87301C4.59333 4.23967 4.33333 3.46634 4.33333 2.66634C4.33333 2.60634 4.33333 2.53967 4.33333 2.47967C4.13333 2.38634 3.90667 2.33301 3.66667 2.33301ZM12.3333 2.33301C12.0933 2.33301 11.8667 2.38634 11.6667 2.47967C11.6667 2.53967 11.6667 2.60634 11.6667 2.66634C11.6667 3.46634 11.4067 4.23967 10.92 4.87301C11 4.99967 11.0867 5.09967 11.1867 5.19967C11.2933 5.29967 11.4 5.38634 11.5267 5.45301C11.7667 5.58634 12.04 5.66634 12.3333 5.66634C12.6267 5.66634 12.9 5.58634 13.14 5.45301C13.6467 5.16634 14 4.62634 14 3.99967C14 3.55765 13.8244 3.13372 13.5118 2.82116C13.1993 2.5086 12.7754 2.33301 12.3333 2.33301ZM8 6.33301C6.44 6.33301 3.33333 7.11301 3.33333 8.66634V9.66634H12.6667V8.66634C12.6667 7.11301 9.56 6.33301 8 6.33301ZM3.14 6.69967C1.85333 6.85301 0 7.50634 0 8.66634V9.66634H2V8.37967C2 7.70634 2.46 7.14634 3.14 6.69967ZM12.86 6.69967C13.54 7.14634 14 7.70634 14 8.37967V9.66634H16V8.66634C16 7.50634 14.1467 6.85301 12.86 6.69967ZM8 7.66634C9.02 7.66634 10.16 7.99967 10.82 8.33301H5.18C5.84 7.99967 6.98 7.66634 8 7.66634Z" fill="#337AB7"/>
</svg>
