<svg width="14" height="14" viewBox="0 0 14 14" fill="none" xmlns="http://www.w3.org/2000/svg">
<path d="M6.99998 12.333C9.93331 12.333 12.3333 9.93301 12.3333 6.99967C12.3333 4.06634 9.93331 1.66634 6.99998 1.66634C4.06665 1.66634 1.66665 4.06634 1.66665 6.99967C1.66665 9.93301 4.06665 12.333 6.99998 12.333ZM6.99998 0.333008C10.6666 0.333008 13.6666 3.33301 13.6666 6.99967C13.6666 10.6663 10.6666 13.6663 6.99998 13.6663C3.33331 13.6663 0.333313 10.6663 0.333313 6.99967C0.333313 3.33301 3.33331 0.333008 6.99998 0.333008ZM10.3333 6.66634V7.66634H6.33331V3.66634H7.33331V6.66634H10.3333Z" fill="#337AB7"/>
</svg>
