<svg width="20" height="20" viewBox="0 0 20 20" fill="none" xmlns="http://www.w3.org/2000/svg">
<path d="M17.19 6.77047C16.8833 6.77047 16.5967 6.7138 16.33 6.60047C16.07 6.48714 15.84 6.33047 15.64 6.13047C15.44 5.93047 15.2833 5.70047 15.17 5.44047C15.0567 5.1738 15 4.88714 15 4.58047C15 4.28047 15.0567 3.99714 15.17 3.73047C15.2833 3.4638 15.44 3.2338 15.64 3.04047C15.84 2.84047 16.07 2.6838 16.33 2.57047C16.5967 2.45047 16.8833 2.3938 17.19 2.40047C17.49 2.3938 17.7733 2.45047 18.04 2.57047C18.3067 2.6838 18.54 2.84047 18.74 3.04047C18.9333 3.2338 19.09 3.4638 19.21 3.73047C19.3233 3.99714 19.38 4.28047 19.38 4.58047C19.38 4.88714 19.3233 5.1738 19.21 5.44047C19.0967 5.70047 18.94 5.93047 18.74 6.13047C18.54 6.33047 18.3067 6.48714 18.04 6.60047C17.7733 6.7138 17.49 6.77047 17.19 6.77047ZM17.19 3.65047C16.93 3.65047 16.7 3.74047 16.5 3.92047C16.3333 4.10047 16.25 4.32047 16.25 4.58047C16.25 4.84047 16.3333 5.0638 16.5 5.25047C16.7 5.41714 16.93 5.50047 17.19 5.50047C17.45 5.50047 17.67 5.41714 17.85 5.25047C18.0367 5.0838 18.13 4.86047 18.13 4.58047C18.13 4.32047 18.0367 4.10047 17.85 3.92047C17.67 3.74047 17.45 3.65047 17.19 3.65047ZM20 8.33047V13.0005C20 13.4205 19.92 13.8205 19.76 14.2005C19.5867 14.5805 19.3633 14.9105 19.09 15.1905C18.8033 15.4771 18.47 15.7005 18.09 15.8605C17.6967 16.0271 17.2933 16.1105 16.88 16.1105C16.6267 16.1105 16.3733 16.0738 16.12 16.0005C15.86 15.9538 15.6233 15.8705 15.41 15.7505C15.25 16.2771 15.0133 16.7571 14.7 17.1905C14.3867 17.6238 14.02 17.9938 13.6 18.3005C13.18 18.6071 12.7167 18.8405 12.21 19.0005C11.7033 19.1805 11.1767 19.2705 10.63 19.2705C9.99 19.2705 9.38667 19.1605 8.82 18.9405C8.27333 18.7205 7.77333 18.4071 7.32 18.0005C6.88 17.6205 6.51667 17.1671 6.23 16.6405C5.93667 16.1071 5.74667 15.5271 5.66 14.9005H0.83C0.61 14.9005 0.413333 14.8171 0.24 14.6505C0.08 14.4905 0 14.2971 0 14.0705V5.73047C0 5.5038 0.08 5.30714 0.24 5.14047C0.413333 4.98047 0.61 4.90047 0.83 4.90047H8C7.80667 4.50047 7.71 4.0838 7.71 3.65047C7.71 3.2438 7.78667 2.86047 7.94 2.50047C8.08667 2.16714 8.29333 1.86047 8.56 1.58047C8.82667 1.32047 9.14 1.1138 9.5 0.960469C9.83333 0.807135 10.2067 0.730469 10.62 0.730469C11.0267 0.730469 11.4067 0.807135 11.76 0.960469C12.1133 1.1138 12.4233 1.32047 12.69 1.58047C12.9567 1.86047 13.1633 2.16714 13.31 2.50047C13.4633 2.86047 13.54 3.2438 13.54 3.65047C13.54 4.05047 13.4633 4.43047 13.31 4.79047C13.1633 5.1438 12.9567 5.45047 12.69 5.71047C12.4233 5.97714 12.1133 6.18714 11.76 6.34047C11.4067 6.4938 11.0267 6.57047 10.62 6.57047C10.52 6.57047 10.4167 6.5638 10.31 6.55047C10.21 6.53714 10.1067 6.52047 10 6.50047V7.40047H19.06C19.32 7.40047 19.5433 7.49047 19.73 7.67047C19.91 7.85047 20 8.07047 20 8.33047ZM10.63 2.00047C10.3967 2.00047 10.1867 2.03714 10 2.11047C9.78 2.19714 9.59333 2.31714 9.44 2.47047C9.29333 2.6238 9.17667 2.80047 9.09 3.00047C9.00333 3.20714 8.96 3.4238 8.96 3.65047C8.96 3.8838 9.00333 4.10047 9.09 4.30047C9.17667 4.50047 9.29333 4.67714 9.44 4.83047C9.59333 4.97714 9.78 5.09714 10 5.19047C10.1867 5.27714 10.3967 5.32047 10.63 5.32047C10.8567 5.32047 11.07 5.27714 11.27 5.19047C11.47 5.09714 11.6467 4.97714 11.8 4.83047C11.9533 4.67714 12.0733 4.50047 12.16 4.30047C12.2533 4.10047 12.3 3.8838 12.3 3.65047C12.3 3.4238 12.2533 3.20714 12.16 3.00047C12.0733 2.80047 11.9533 2.6238 11.8 2.47047C11.6467 2.31714 11.47 2.19714 11.27 2.11047C11.07 2.03714 10.8567 2.00047 10.63 2.00047ZM5.78 8.18047H7.66V6.62047H2.34V8.18047H4.22V13.1805H5.78M14.38 14.2705V8.65047H10V14.0705C10 14.2971 9.92 14.4905 9.76 14.6505C9.58667 14.8171 9.39 14.9005 9.17 14.9005H6.92C7.00667 15.3471 7.16333 15.7638 7.39 16.1505C7.61667 16.5305 7.89 16.8605 8.21 17.1405C8.53 17.4138 8.89667 17.6305 9.31 17.7905C9.71667 17.9305 10.1567 18.0005 10.63 18.0005C11.1433 18.0005 11.6267 17.9105 12.08 17.7305C12.5333 17.5305 12.9333 17.2605 13.28 16.9205C13.62 16.5805 13.8867 16.1838 14.08 15.7305C14.28 15.2771 14.38 14.7905 14.38 14.2705ZM18.75 13.0005V8.65047H15.63V14.3605C15.7967 14.5271 15.9867 14.6538 16.2 14.7405C16.4 14.8205 16.6267 14.8605 16.88 14.8605C17.14 14.8605 17.3833 14.8105 17.61 14.7105C17.8367 14.6105 18.0333 14.4771 18.2 14.3105C18.3733 14.1438 18.5067 13.9438 18.6 13.7105C18.7 13.4838 18.75 13.2471 18.75 13.0005Z" fill="white"/>
</svg>
