<svg width="10" height="14" viewBox="0 0 10 14" fill="none" xmlns="http://www.w3.org/2000/svg">
<path d="M4.99998 3.33301C5.44201 3.33301 5.86593 3.5086 6.17849 3.82116C6.49105 4.13372 6.66665 4.55765 6.66665 4.99967C6.66665 5.21854 6.62354 5.43527 6.53978 5.63748C6.45602 5.83969 6.33325 6.02342 6.17849 6.17819C6.02373 6.33295 5.83999 6.45572 5.63779 6.53947C5.43558 6.62323 5.21885 6.66634 4.99998 6.66634C4.55795 6.66634 4.13403 6.49075 3.82147 6.17819C3.50891 5.86562 3.33331 5.4417 3.33331 4.99967C3.33331 4.55765 3.50891 4.13372 3.82147 3.82116C4.13403 3.5086 4.55795 3.33301 4.99998 3.33301ZM4.99998 0.333008C6.23766 0.333008 7.42464 0.824673 8.29981 1.69984C9.17498 2.57501 9.66665 3.762 9.66665 4.99967C9.66665 8.49967 4.99998 13.6663 4.99998 13.6663C4.99998 13.6663 0.333313 8.49967 0.333313 4.99967C0.333313 3.762 0.824978 2.57501 1.70015 1.69984C2.57532 0.824673 3.7623 0.333008 4.99998 0.333008ZM4.99998 1.66634C4.11592 1.66634 3.26808 2.01753 2.64296 2.64265C2.01784 3.26777 1.66665 4.11562 1.66665 4.99967C1.66665 5.66634 1.66665 6.99967 4.99998 11.473C8.33331 6.99967 8.33331 5.66634 8.33331 4.99967C8.33331 4.11562 7.98212 3.26777 7.357 2.64265C6.73188 2.01753 5.88403 1.66634 4.99998 1.66634Z" fill="#337AB7"/>
</svg>
