<svg width="220" height="214" viewBox="0 0 220 214" fill="none" xmlns="http://www.w3.org/2000/svg">
<path d="M203.777 173.906C205.665 163.055 223.592 142.296 218.404 129.557C213.216 116.818 200.471 157.381 195.752 157.867C191.033 158.352 195.283 139.465 201.89 121.537C208.496 103.61 213.685 84.7335 201.89 77.6575C190.094 70.5815 190.564 126.726 187.732 124.838C184.901 122.95 189.62 99.3601 186.319 84.7335C183.018 70.1068 175.468 81.902 175.468 98.9182C175.468 115.934 180.656 125.34 176.881 126.742C173.106 128.144 161.523 122.869 161.785 141.369C162.047 159.869 176.412 181.948 171.218 179.116C166.024 176.285 156.591 165.434 158.479 182.892C159.816 195.232 169.39 207.093 174.9 212.991H200.127C203.974 209.035 211.448 200.699 216.494 190.912C223.592 177.212 201.89 184.763 203.777 173.906Z" fill="#166740"/>
<path d="M173.105 211.888C168.435 205.194 166.253 197.011 164.071 189.373C162.98 184.463 162.98 179.007 166.799 175.734C170.618 173.006 172.8 177.916 174.982 180.098C176.619 179.007 175.528 177.371 175.528 176.279C174.439 167.593 173.893 158.847 173.891 150.092C173.891 144.637 176.073 140.272 178.256 135.362C179.347 133.725 180.438 132.089 182.075 131.543C183.711 130.997 185.348 131.543 185.894 133.18C186.985 136.999 186.985 140.818 187.53 144.637C188.621 143.545 188.076 141.909 188.076 140.818C190.258 124.996 188.621 109.72 193.531 94.4444C194.077 93.3533 195.714 92.2622 196.805 92.8077C200.624 93.3533 200.624 98.2634 200.624 101.537C202.806 117.358 197.896 132.634 196.259 148.455C196.259 149.547 195.714 150.638 196.805 151.729C197.35 147.91 199.533 144.091 200.624 140.272C201.169 138.635 202.26 136.453 203.897 135.362C204.988 134.816 206.079 135.362 207.171 136.453C209.353 139.726 209.898 143 209.353 146.819C207.716 156.093 204.443 163.731 200.624 171.915L198.987 176.825C198.442 180.098 196.259 183.917 198.442 186.645C202.261 186.1 203.352 181.735 206.625 179.553C209.898 177.37 210.99 180.098 211.535 182.281C213.717 193.192 209.898 203.012 204.399 211.867" stroke="#08321E" stroke-width="0.340679" stroke-linecap="round" stroke-linejoin="round"/>
<path d="M188.387 209.804C188.387 209.804 187.116 184.31 190.302 161.052" stroke="#263238" stroke-width="0.340679" stroke-linecap="round" stroke-linejoin="round"/>
<path d="M177.874 193.552L188.387 205.025L197.629 197.054" stroke="#263238" stroke-width="0.340679" stroke-linecap="round" stroke-linejoin="round"/>
<path d="M185.517 164.877L188.387 179.531L196.674 164.877" stroke="#263238" stroke-width="0.340679" stroke-linecap="round" stroke-linejoin="round"/>
<path d="M190.618 157.228L192.528 143.529" stroke="#263238" stroke-width="0.340679" stroke-linecap="round" stroke-linejoin="round"/>
<path d="M39.6 45.5127H5.24023V88.4651H39.6V45.5127Z" fill="#CEECFF" stroke="#263238" stroke-width="0.340679" stroke-linecap="round" stroke-linejoin="round"/>
<path d="M82.5525 45.5127H48.1927V88.4651H82.5525V45.5127Z" stroke="#263238" stroke-width="0.340679" stroke-linecap="round" stroke-linejoin="round"/>
<path d="M39.6 95.4921H5.24023V138.444H39.6V95.4921Z" fill="#CEECFF" stroke="#263238" stroke-width="0.340679" stroke-linecap="round" stroke-linejoin="round"/>
<path d="M82.5525 95.4921H48.1927V138.444H82.5525V95.4921Z" fill="#CEECFF" stroke="#263238" stroke-width="0.340679" stroke-linecap="round" stroke-linejoin="round"/>
<path d="M39.6 145.471H5.24023V188.424H39.6V145.471Z" fill="#CEECFF" stroke="#263238" stroke-width="0.340679" stroke-linecap="round" stroke-linejoin="round"/>
<path d="M82.5525 145.471H48.1927V188.424H82.5525V145.471Z" fill="#CEECFF" stroke="#263238" stroke-width="0.340679" stroke-linecap="round" stroke-linejoin="round"/>
<path d="M44.2864 1C34.1376 1 24.4045 5.03158 17.2282 12.2079C10.052 19.3841 6.02039 29.1172 6.02039 39.266H82.5524C82.5524 29.1172 78.5208 19.3841 71.3445 12.2079C64.1683 5.03158 54.4352 1 44.2864 1Z" fill="#FFE8A3" stroke="#263238" stroke-width="0.340679" stroke-linecap="round" stroke-linejoin="round"/>
<path d="M93.7746 21.5135C93.7746 21.5135 93.7746 13.33 79.7263 14.9667C65.678 16.6034 59.7913 29.015 55.5468 31.6283C51.3023 34.2415 43.4571 36.5383 43.1297 40.4501C42.8024 44.3618 46.4031 46.0039 42.8024 48.9445C39.2017 51.8851 33.6805 54.5148 34.9626 58.4374C36.2447 62.36 39.8727 66.2772 38.236 68.8959C36.5993 71.5146 32.0275 74.1224 36.272 77.0794C40.5165 80.0363 42.4805 80.6746 42.4805 84.5918C42.4805 88.509 40.8438 91.1386 44.7719 92.437C48.7 93.7355 50.975 91.1277 53.2663 96.0269C55.5577 100.926 57.8382 102.235 61.7608 101.253C65.6834 100.271 71.2318 98.6401 73.2177 99.9495C75.2036 101.259 81.4012 104.86 83.9981 102.89C86.595 100.921 88.9082 97.98 92.8199 99.6167C96.7316 101.253 100.01 103.539 101.642 100.599C103.273 97.6581 101.642 97.0034 107.85 95.6886C114.059 94.3738 116.345 94.7121 116.345 89.4855C116.345 84.259 116.017 82.9388 118.958 80.6637C121.899 78.3887 124.512 79.3544 123.535 73.8005C122.559 68.2467 120.595 66.9373 121.571 61.3834C122.548 55.8296 119.935 53.871 117.976 52.2343C116.017 50.5976 113.731 47.6624 114.386 44.7218C115.041 41.7812 119.94 41.4484 115.035 36.2274C110.131 31.0063 107.85 32.6321 106.852 28.7095C105.853 24.7869 102.596 16.2869 93.7746 21.5135Z" fill="#263238" stroke="#263238" stroke-width="0.340679" stroke-linecap="round" stroke-linejoin="round"/>
<path d="M81.2322 31.35C79.219 34.5361 77.6642 38.1314 74.4235 41.1702C69.7425 45.5348 57.751 49.3537 57.1672 53.4564C56.5835 57.559 58.6294 59.8886 54.5376 63.3966C50.4459 66.9046 44.0082 67.7611 44.0082 71.2964C44.0082 74.8317 45.7594 75.9773 44.8865 78.607" stroke="#616161" stroke-width="0.340679" stroke-miterlimit="10"/>
<path d="M89.9285 27.422C89.9285 27.422 88.4664 23.603 84.3692 27.422C84.0528 27.7166 83.7527 28.0221 83.469 28.3331" stroke="#616161" stroke-width="0.340679" stroke-miterlimit="10"/>
<path d="M56.8889 44.1382C53.2882 45.0111 50.4458 45.6385 50.1512 48.1917C49.562 53.1618 50.4403 56.3752 46.9323 57.8428C43.4243 59.3104 38.7489 61.6617 40.2055 64.5696C41.6622 67.4775 41.9568 68.3886 41.6676 69.5397" stroke="#616161" stroke-width="0.340679" stroke-miterlimit="10"/>
<path d="M89.3284 22.7409C89.3284 22.7409 81.1449 17.4816 76.7804 22.1572C72.4158 26.8327 74.4399 32.6866 67.7131 39.1243C66.0046 40.7151 63.9881 41.9387 61.7882 42.7195" stroke="#616161" stroke-width="0.340679" stroke-miterlimit="10"/>
<path d="M117.791 64.2204C118.281 64.9826 118.959 65.6062 119.76 66.0317" stroke="#616161" stroke-width="0.340679" stroke-miterlimit="10"/>
<path d="M95.1932 30.068C95.1932 30.068 102.504 27.7275 104.255 31.8192C106.006 35.911 106.89 43.227 110.109 44.4C113.328 45.573 114.785 47.3242 114.785 53.7564C114.781 55.8295 115.09 57.8913 115.701 59.8722" stroke="#616161" stroke-width="0.340679" stroke-miterlimit="10"/>
<path d="M47.8108 82.1149C50.1513 78.296 53.3647 79.7799 53.6593 75.6827C53.9539 71.5855 51.6134 70.418 53.9484 67.7884C56.2834 65.1587 60.0915 63.9694 60.0915 63.9694" stroke="#616161" stroke-width="0.340679" stroke-miterlimit="10"/>
<path d="M51.0242 90.3094C49.9435 89.4145 49.0053 88.3605 48.2418 87.1833" stroke="#616161" stroke-width="0.340679" stroke-miterlimit="10"/>
<path d="M132.003 212.974C132.003 212.974 132.979 199.581 127.092 186.182C121.206 172.783 119.88 171.817 119.88 167.894C119.88 163.972 123.819 159.394 124.474 150.573C125.128 141.751 124.801 137.479 124.801 137.479C124.801 137.479 138.849 159.694 148.653 161.004C158.457 162.313 164.338 153.164 160.743 140.747C157.148 128.33 141.463 118.204 135.26 110.032C129.056 101.859 114.997 101.848 107.812 101.848C100.627 101.848 97.0317 99.2348 95.7224 94.3356C94.413 89.4364 94.4185 79.6053 94.4185 79.6053C94.4185 79.6053 85.9185 84.8318 71.5429 78.9506C71.5429 78.9506 72.8522 96.9216 71.2155 99.5348C69.5788 102.148 67.3093 104.81 57.5054 104.81C47.7016 104.81 39.5345 106.774 34.9627 111.357C30.3908 115.94 11.4378 134.227 6.53866 141.418C1.63948 148.609 4.24728 156.448 10.1285 159.389C16.0097 162.329 21.8909 159.711 26.1409 155.794C30.3908 151.876 43.7845 139.454 43.7845 139.454C43.7845 139.454 43.7845 146.972 47.3797 157.752C50.975 168.533 53.9265 167.229 51.2969 175.068C48.6673 182.908 43.4571 185.2 41.8259 195.325C40.8488 201.154 40.4105 207.06 40.5165 212.969" fill="#143347"/>
<path d="M132.003 212.974C132.003 212.974 132.979 199.581 127.092 186.182C121.206 172.783 119.88 171.817 119.88 167.894C119.88 163.972 123.819 159.394 124.474 150.573C125.128 141.751 124.801 137.479 124.801 137.479C124.801 137.479 138.849 159.694 148.653 161.004C158.457 162.313 164.338 153.164 160.743 140.747C157.148 128.33 141.463 118.204 135.26 110.032C129.056 101.859 114.997 101.848 107.812 101.848C100.627 101.848 97.0317 99.2348 95.7224 94.3356C94.413 89.4364 94.4185 79.6053 94.4185 79.6053C94.4185 79.6053 85.9185 84.8318 71.5429 78.9506C71.5429 78.9506 72.8522 96.9216 71.2155 99.5348C69.5788 102.148 67.3093 104.81 57.5054 104.81C47.7016 104.81 39.5345 106.774 34.9627 111.357C30.3908 115.94 11.4378 134.227 6.53866 141.418C1.63948 148.609 4.24728 156.448 10.1285 159.389C16.0097 162.329 21.8909 159.711 26.1409 155.794C30.3908 151.876 43.7845 139.454 43.7845 139.454C43.7845 139.454 43.7845 146.972 47.3797 157.752C50.975 168.533 53.9265 167.229 51.2969 175.068C48.6673 182.908 43.4571 185.2 41.8259 195.325C40.8488 201.154 40.4105 207.06 40.5165 212.969" stroke="#263238" stroke-width="0.340679" stroke-linecap="round" stroke-linejoin="round"/>
<path d="M43.7845 139.459C44.0525 135.926 44.7769 132.441 45.9395 129.094L43.7845 139.459Z" fill="white"/>
<path d="M43.7845 139.459C44.0525 135.926 44.7769 132.441 45.9395 129.094" stroke="#263238" stroke-width="0.340679" stroke-linecap="round" stroke-linejoin="round"/>
<path d="M124.79 137.501C124.071 134.789 123.07 132.16 121.806 129.656" stroke="#263238" stroke-width="0.340679" stroke-linecap="round" stroke-linejoin="round"/>
<path d="M76.7966 173.716L97.3754 167.12" stroke="#263238" stroke-width="0.340679" stroke-linecap="round" stroke-linejoin="round"/>
<path d="M86.115 168.282C90.9226 166.347 95.9393 164.979 101.063 164.206L86.115 168.282Z" fill="#143347"/>
<path d="M86.115 168.282C90.9226 166.347 95.9393 164.979 101.063 164.206" stroke="#263238" stroke-width="0.340679" stroke-linecap="round" stroke-linejoin="round"/>
<path d="M80.3757 126.72C96.6772 129.863 102.968 114.238 105.155 101.75C99.7269 101.15 96.8681 98.6238 95.7333 94.3739C94.4294 89.4638 94.4294 79.6436 94.4294 79.6436C94.4294 79.6436 85.9295 84.8701 71.5539 78.9889C71.5539 78.9889 72.8632 96.9598 71.2265 99.5731C70.0917 101.395 68.6296 103.217 64.5379 104.15C64.3906 109.759 65.5199 123.851 80.3757 126.72Z" fill="#FFC2C2"/>
<mask id="mask0_1_4384" style="mask-type:luminance" maskUnits="userSpaceOnUse" x="64" y="78" width="42" height="50">
<path d="M80.3757 126.72C96.6772 129.863 102.968 114.238 105.155 101.75C99.7269 101.15 96.8681 98.6238 95.7333 94.3739C94.4294 89.4638 94.4294 79.6436 94.4294 79.6436C94.4294 79.6436 85.9295 84.8701 71.5539 78.9889C71.5539 78.9889 72.8632 96.9598 71.2265 99.5731C70.0917 101.395 68.6296 103.217 64.5379 104.15C64.3906 109.759 65.5199 123.851 80.3757 126.72Z" fill="white"/>
</mask>
<g mask="url(#mask0_1_4384)">
<path opacity="0.2" d="M95.3787 92.7589C94.4294 87.5979 94.4294 79.6654 94.4294 79.6654C94.4294 79.6654 85.9295 84.8919 71.5538 79.0107C71.5538 79.0107 72.0994 86.5231 72.0448 92.5407C84.4183 96.8398 91.5761 95.0176 95.3787 92.7589Z" fill="#212121"/>
</g>
<path d="M80.3757 126.72C96.6772 129.863 102.968 114.238 105.155 101.75C99.7269 101.15 96.8681 98.6238 95.7333 94.3739C94.4294 89.4638 94.4294 79.6436 94.4294 79.6436C94.4294 79.6436 85.9295 84.8701 71.5539 78.9889C71.5539 78.9889 72.8632 96.9598 71.2265 99.5731C70.0917 101.395 68.6296 103.217 64.5379 104.15C64.3906 109.759 65.5199 123.851 80.3757 126.72Z" stroke="#263238" stroke-width="0.340679" stroke-linecap="round" stroke-linejoin="round"/>
<path d="M105.024 73.4022C107.26 73.4022 109.072 71.5898 109.072 69.3541C109.072 67.1184 107.26 65.306 105.024 65.306C102.789 65.306 100.976 67.1184 100.976 69.3541C100.976 71.5898 102.789 73.4022 105.024 73.4022Z" fill="#2454C0" stroke="#263238" stroke-width="0.340679" stroke-linecap="round" stroke-linejoin="round"/>
<path d="M61.7827 73.4022C64.0184 73.4022 65.8308 71.5898 65.8308 69.3541C65.8308 67.1184 64.0184 65.306 61.7827 65.306C59.547 65.306 57.7346 67.1184 57.7346 69.3541C57.7346 71.5898 59.547 73.4022 61.7827 73.4022Z" fill="#2454C0" stroke="#263238" stroke-width="0.340679" stroke-linecap="round" stroke-linejoin="round"/>
<path d="M104.653 55.5568C104.653 55.5568 106.677 49.2991 109.072 51.5087C111.467 53.7182 108.336 62.18 106.677 64.204C105.019 66.2281 103.366 66.2281 103.551 63.4675C103.737 60.7069 104.653 55.5568 104.653 55.5568Z" fill="#FFC2C2" stroke="#263238" stroke-width="0.340679" stroke-linecap="round" stroke-linejoin="round"/>
<path d="M62.8083 61.8526C62.8083 61.8526 63.3539 76.4683 74.1125 83.637C84.871 90.8058 92.8636 86.6704 97.2772 80.6037C101.691 74.537 104.451 68.4703 104.451 59.6485C104.451 50.8267 105.543 46.9586 102.52 41.443C99.4977 35.9273 89.0064 33.1722 89.0064 33.1722C84.648 38.6115 79.9504 43.77 74.9417 48.6172C66.6655 56.6097 62.8083 61.8526 62.8083 61.8526Z" fill="#FFC2C2"/>
<mask id="mask1_1_4384" style="mask-type:luminance" maskUnits="userSpaceOnUse" x="62" y="33" width="43" height="55">
<path d="M62.8083 61.8526C62.8083 61.8526 63.3539 76.4683 74.1125 83.637C84.871 90.8058 92.8636 86.6704 97.2772 80.6037C101.691 74.537 104.451 68.4703 104.451 59.6485C104.451 50.8267 105.543 46.9586 102.52 41.443C99.4977 35.9273 89.0064 33.1722 89.0064 33.1722C84.648 38.6115 79.9504 43.77 74.9417 48.6172C66.6655 56.6097 62.8083 61.8526 62.8083 61.8526Z" fill="white"/>
</mask>
<g mask="url(#mask1_1_4384)">
<path opacity="0.2" d="M89.0064 33.1722C84.648 38.6115 79.9504 43.77 74.9417 48.6172C66.6655 56.6097 62.8083 61.8526 62.8083 61.8526C63.0082 64.7004 63.571 67.511 64.4832 70.2161C79.0171 59.0975 86.9551 39.1188 89.0664 33.1885L89.0064 33.1722Z" fill="#143347"/>
</g>
<path d="M62.8083 61.8526C62.8083 61.8526 63.3539 76.4683 74.1125 83.637C84.871 90.8058 92.8636 86.6704 97.2772 80.6037C101.691 74.537 104.451 68.4703 104.451 59.6485C104.451 50.8267 105.543 46.9586 102.52 41.443C99.4977 35.9273 89.0064 33.1722 89.0064 33.1722C84.648 38.6115 79.9504 43.77 74.9417 48.6172C66.6655 56.6097 62.8083 61.8526 62.8083 61.8526Z" stroke="#263238" stroke-width="0.340679" stroke-linecap="round" stroke-linejoin="round"/>
<path d="M72.9832 60.1341L79.1753 60.7124" stroke="#263238" stroke-width="0.340679" stroke-linecap="round" stroke-linejoin="round"/>
<path d="M91.7506 59.9376C91.7506 59.9376 95.8151 59.1629 97.7518 59.9376" stroke="#263238" stroke-width="0.340679" stroke-linecap="round" stroke-linejoin="round"/>
<path d="M78.3406 57.3026C78.3406 58.7757 77.6805 59.9705 76.8676 59.9705C76.0547 59.9705 75.4 58.7757 75.4 57.3026C75.4 55.8296 76.0547 54.6348 76.8676 54.6348C77.6805 54.6348 78.3406 55.8296 78.3406 57.3026Z" fill="#263238"/>
<path d="M81.6522 66.6209C82.6402 67.2407 83.8028 67.5227 84.9649 67.4243C86.127 67.3259 87.2257 66.8525 88.0954 66.0753" stroke="#263238" stroke-width="0.340679" stroke-linecap="round" stroke-linejoin="round"/>
<path d="M83.327 72.8512C83.327 72.8512 89.0282 75.2463 92.3398 67.5156" stroke="#263238" stroke-width="0.340679" stroke-linecap="round" stroke-linejoin="round"/>
<path d="M90.6704 57.3953C90.6704 57.3953 94.1675 55.0003 97.6646 56.4733" stroke="#263238" stroke-width="0.681358" stroke-linecap="round" stroke-linejoin="round"/>
<path d="M89.5684 51.3451C89.5684 51.3451 93.431 47.4824 98.7666 50.6085" stroke="#263238" stroke-width="0.681358" stroke-linecap="round" stroke-linejoin="round"/>
<path d="M81.2866 48.9282C81.2866 48.9282 77.9751 45.6166 73.3705 48.7482" stroke="#263238" stroke-width="0.681358" stroke-linecap="round" stroke-linejoin="round"/>
<path d="M6.53867 141.423C6.53867 141.423 0.657471 147.97 0.657471 154.817C0.657471 161.664 4.57464 167.911 15.3878 177.687C26.2009 187.464 36.2938 194.676 40.5438 196.968C44.7938 199.259 49.0383 196.313 49.0383 196.313C49.0383 196.313 56.0652 203.334 56.8781 201.703C57.691 200.072 54.4285 197.617 53.7738 196.64C53.1992 195.864 52.5425 195.153 51.8152 194.518C51.8152 194.518 55.2468 195.004 56.5562 196.155C57.8655 197.306 59.9823 199.259 60.9643 199.095C61.9464 198.932 61.9464 198.113 60.4733 196.155C59.2858 194.621 57.8514 193.295 56.2288 192.232C55.2468 191.583 51.9789 189.782 51.9789 189.782C51.9789 189.782 56.7144 189.455 58.3511 190.437C59.9878 191.419 64.396 194.36 64.7233 193.05C65.0506 191.741 65.0506 190.928 63.4139 189.455C61.7772 187.982 58.5038 186.182 56.5562 185.86C55.2135 185.613 53.8993 185.231 52.6336 184.72C52.6336 184.72 56.3925 183.41 57.6964 183.41C59.0003 183.41 64.2432 186.024 65.6999 185.702C67.1565 185.38 66.3545 184.065 65.2143 183.247C64.0741 182.428 59.0058 180.47 56.8781 180.306C54.7504 180.142 42.8297 184.229 41.3622 184.229C39.8946 184.229 36.1356 179.002 32.213 171.975C28.2904 164.948 26.8228 154.004 18.492 150.251" fill="#143347"/>
<mask id="mask2_1_4384" style="mask-type:luminance" maskUnits="userSpaceOnUse" x="0" y="141" width="67" height="61">
<path d="M6.53867 141.423C6.53867 141.423 0.657471 147.97 0.657471 154.817C0.657471 161.664 4.57463 167.911 15.3878 177.687C26.2009 187.464 36.2938 194.676 40.5438 196.968C44.7938 199.259 49.0383 196.313 49.0383 196.313C49.0383 196.313 56.0652 203.334 56.8781 201.703C57.6909 200.072 54.4285 197.617 53.7738 196.64C53.1992 195.864 52.5425 195.153 51.8152 194.518C51.8152 194.518 55.2468 195.004 56.5562 196.155C57.8655 197.306 59.9823 199.259 60.9643 199.095C61.9464 198.932 61.9464 198.113 60.4733 196.155C59.2858 194.621 57.8514 193.295 56.2288 192.232C55.2468 191.583 51.9789 189.782 51.9789 189.782C51.9789 189.782 56.7144 189.455 58.3511 190.437C59.9878 191.419 64.396 194.36 64.7233 193.05C65.0506 191.741 65.0506 190.928 63.4139 189.455C61.7772 187.982 58.5038 186.182 56.5562 185.86C55.2135 185.613 53.8993 185.231 52.6336 184.72C52.6336 184.72 56.3925 183.41 57.6964 183.41C59.0003 183.41 64.2432 186.024 65.6999 185.702C67.1565 185.38 66.3545 184.065 65.2143 183.247C64.0741 182.428 59.0058 180.47 56.8781 180.306C54.7503 180.142 42.8297 184.229 41.3622 184.229C39.8946 184.229 36.1356 179.002 32.213 171.975C28.2904 164.948 26.8228 154.004 18.492 150.251" fill="white"/>
</mask>
<g mask="url(#mask2_1_4384)">
<g opacity="0.2">
<path d="M5.81311 164.468C6.03679 164.468 6.85514 165.014 5.81311 166.602C6.85514 165.025 6.03679 164.468 5.81311 164.468Z" fill="#143347"/>
<path d="M18.9066 157.922C18.6829 157.922 17.8646 158.467 18.9066 160.055C19.9486 158.478 19.1303 157.922 18.9066 157.922Z" fill="#143347"/>
<path d="M8.22438 152.761C8.10981 152.564 7.21509 152.139 6.38037 153.852C8.26803 153.939 8.33895 152.951 8.22438 152.761Z" fill="#143347"/>
<path d="M8.03892 166.503C8.0934 166.445 8.13931 166.379 8.17531 166.307C8.22851 166.244 8.26099 166.167 8.26831 166.085C8.27562 166.003 8.25741 165.921 8.21616 165.85C8.17492 165.778 8.11266 165.722 8.03794 165.687C7.96323 165.653 7.87971 165.643 7.79887 165.658C7.56019 165.653 7.32778 165.734 7.14419 165.887C7.03302 165.975 6.9307 166.074 6.83867 166.182C6.72907 166.313 6.63053 166.454 6.54407 166.602H7.92981C7.96858 166.572 8.00505 166.539 8.03892 166.503Z" fill="#143347"/>
<path d="M21.318 159.307C21.2034 159.111 20.3087 158.686 19.474 160.399C21.3617 160.486 21.4271 159.498 21.318 159.307Z" fill="#143347"/>
<path d="M18.3393 160.382C17.5046 158.685 16.6098 159.111 16.4953 159.291C16.3807 159.471 16.4571 160.486 18.3393 160.382Z" fill="#143347"/>
<path d="M5.81311 151.375V153.508C6.85514 151.931 6.03679 151.375 5.81311 151.375Z" fill="#143347"/>
<path d="M5.81311 164.468V166.602C6.85514 165.025 6.03679 164.468 5.81311 164.468Z" fill="#143347"/>
<path d="M32.0002 190.656C31.9035 190.676 31.8133 190.719 31.738 190.783C31.6627 190.847 31.6047 190.929 31.5692 191.021L32.4912 191.698C32.6276 190.945 32.1639 190.656 32.0002 190.656Z" fill="#143347"/>
<path d="M45.0938 197.202C44.9563 197.236 44.8332 197.313 44.7428 197.422C44.6525 197.531 44.5995 197.666 44.5919 197.808C44.9196 197.782 45.2456 197.738 45.5685 197.677C45.5424 197.561 45.484 197.455 45.4 197.371C45.3159 197.287 45.2098 197.228 45.0938 197.202Z" fill="#143347"/>
<path d="M32.0002 177.562C31.7765 177.562 30.9582 178.108 32.0002 179.695C33.0423 178.119 32.2239 177.562 32.0002 177.562Z" fill="#143347"/>
<path d="M45.0938 186.242C46.1359 184.665 45.3175 184.109 45.0938 184.109C44.8701 184.109 44.0463 184.665 45.0938 186.242Z" fill="#143347"/>
<path d="M18.9066 173.148C19.9486 171.572 19.1302 171.015 18.9066 171.015C18.6829 171.015 17.8591 171.572 18.9066 173.148Z" fill="#143347"/>
<path d="M34.4116 192.041C34.3243 191.894 33.8005 191.616 33.1949 192.2C33.4896 192.418 33.7842 192.625 34.0733 192.827C34.2102 192.753 34.3181 192.636 34.3795 192.493C34.4409 192.35 34.4522 192.191 34.4116 192.041Z" fill="#143347"/>
<path d="M32.5894 180.023C34.4716 180.126 34.5425 179.139 34.4334 178.931C34.3243 178.724 33.4022 178.326 32.5894 180.023Z" fill="#143347"/>
<path d="M45.683 186.569C47.5652 186.673 47.6361 185.686 47.527 185.478C47.4179 185.271 46.4959 184.873 45.683 186.569Z" fill="#143347"/>
<path d="M19.4958 173.476C21.3835 173.579 21.449 172.592 21.3399 172.385C21.2307 172.177 20.3087 171.779 19.4958 173.476Z" fill="#143347"/>
<path d="M57.429 193.122C56.9598 192.751 56.5288 192.451 56.2015 192.227L55.8196 191.987L55.776 192.041C55.6668 192.227 55.7378 193.149 57.429 193.122Z" fill="#143347"/>
<path d="M31.4328 180.022C30.5981 178.326 29.7033 178.751 29.5888 178.931C29.4742 179.111 29.5506 180.126 31.4328 180.022Z" fill="#143347"/>
<path d="M42.6824 185.494C42.5678 185.685 42.6442 186.673 44.5264 186.586C43.6917 184.873 42.797 185.298 42.6824 185.494Z" fill="#143347"/>
<path d="M16.4953 172.401C16.3862 172.592 16.4571 173.579 18.3393 173.492C17.5046 171.779 16.6099 172.205 16.4953 172.401Z" fill="#143347"/>
<path d="M7.94072 166.602H6.55498C6.55655 166.612 6.55655 166.623 6.55498 166.634C6.50588 166.722 6.45132 166.82 6.40222 166.929C6.93765 167.006 7.48294 166.89 7.94072 166.602Z" fill="#143347"/>
<path d="M5.81297 151.375C5.58929 151.375 4.77094 151.92 5.81297 153.508V151.375Z" fill="#143347"/>
<path d="M5.81306 166.602V164.468C5.58938 164.468 4.76557 165.025 5.81306 166.602Z" fill="#143347"/>
<path d="M5.24564 153.835C4.41093 152.139 3.5162 152.564 3.40163 152.744C3.28706 152.924 3.36344 153.939 5.24564 153.835Z" fill="#143347"/>
<path d="M4.76558 166.182C4.67356 166.074 4.57123 165.975 4.46006 165.887L4.42188 165.86C4.591 166.105 4.76013 166.356 4.96744 166.602H5.08746C4.9923 166.453 4.88462 166.312 4.76558 166.182Z" fill="#143347"/>
<path d="M5.09293 166.634C5.09136 166.623 5.09136 166.612 5.09293 166.602H4.9729L5.21295 166.929H5.26751C5.19658 166.82 5.14203 166.722 5.09293 166.634Z" fill="#143347"/>
</g>
</g>
<path d="M6.53867 141.423C6.53867 141.423 0.657471 147.97 0.657471 154.817C0.657471 161.664 4.57464 167.911 15.3878 177.687C26.2009 187.464 36.2938 194.676 40.5438 196.968C44.7938 199.259 49.0383 196.313 49.0383 196.313C49.0383 196.313 56.0652 203.334 56.8781 201.703C57.691 200.072 54.4285 197.617 53.7738 196.64C53.1992 195.864 52.5425 195.153 51.8152 194.518C51.8152 194.518 55.2468 195.004 56.5562 196.155C57.8655 197.306 59.9823 199.259 60.9643 199.095C61.9464 198.932 61.9464 198.113 60.4733 196.155C59.2858 194.621 57.8514 193.295 56.2288 192.232C55.2468 191.583 51.9789 189.782 51.9789 189.782C51.9789 189.782 56.7144 189.455 58.3511 190.437C59.9878 191.419 64.396 194.36 64.7233 193.05C65.0506 191.741 65.0506 190.928 63.4139 189.455C61.7772 187.982 58.5038 186.182 56.5562 185.86C55.2135 185.613 53.8993 185.231 52.6336 184.72C52.6336 184.72 56.3925 183.41 57.6964 183.41C59.0003 183.41 64.2432 186.024 65.6999 185.702C67.1565 185.38 66.3545 184.065 65.2143 183.247C64.0741 182.428 59.0058 180.47 56.8781 180.306C54.7503 180.142 42.8297 184.229 41.3622 184.229C39.8946 184.229 36.1356 179.002 32.213 171.975C28.2904 164.948 26.8228 154.004 18.492 150.251" stroke="#263238" stroke-width="0.340679" stroke-linecap="round" stroke-linejoin="round"/>
<path d="M65.1871 183.241C64.0414 182.428 58.9786 180.464 56.8509 180.301C54.7231 180.137 42.8025 184.223 41.335 184.223C39.8674 184.223 36.1084 178.997 32.1858 171.97C30.0035 168.069 28.5851 162.957 26.321 158.543C14.3185 156.907 9.17383 163.923 6.79517 168.969C9.44358 172.075 12.3057 174.991 15.3606 177.698C26.1409 187.518 36.2666 194.687 40.5166 196.978C44.7666 199.27 49.0111 196.324 49.0111 196.324C49.0111 196.324 56.038 203.345 56.8509 201.714C57.6637 200.083 54.4013 197.628 53.7466 196.651C53.172 195.875 52.5153 195.164 51.788 194.529C51.788 194.529 55.2196 195.014 56.529 196.166C57.8383 197.317 59.9551 199.27 60.9371 199.106C61.9192 198.943 61.9192 198.124 60.4461 196.166C59.2586 194.632 57.8242 193.306 56.2016 192.243C55.2196 191.594 51.9517 189.793 51.9517 189.793C51.9517 189.793 56.6872 189.466 58.3239 190.448C59.9606 191.43 64.3688 194.371 64.6961 193.061C65.0234 191.752 65.0234 190.939 63.3867 189.466C61.75 187.993 58.4766 186.193 56.529 185.871C55.1864 185.624 53.8721 185.242 52.6063 184.731C52.6063 184.731 56.3653 183.421 57.6692 183.421C58.9731 183.421 64.216 186.034 65.6727 185.713C67.1293 185.391 66.3273 184.059 65.1871 183.241Z" fill="#FFC2C2" stroke="#263238" stroke-width="0.340679" stroke-linecap="round" stroke-linejoin="round"/>
<path d="M136.116 147.556C134.752 144.44 135.92 137.621 137.284 127.883C138.648 118.144 140.011 108.209 140.011 102.95C140.011 97.6909 140.879 90.4021 139.166 88.0507C137.453 85.6993 131.217 79.3217 130.753 76.3647C130.289 73.4077 134.49 68.885 134.49 68.885C134.49 68.885 135.74 66.5445 136.831 67.7939C137.922 69.0432 137.453 70.5981 136.831 72.7803C136.209 74.9626 135.581 76.6757 135.581 76.6757C135.581 76.6757 141.037 78.3888 142.439 77.4558C143.841 76.5229 143.716 71.1873 143.618 68.574C143.416 63.4784 141.375 65.6552 139.962 68.0666C139.28 69.2232 135.287 68.5358 137.622 65.5734C139.957 62.611 142.128 59.9977 144.31 62.3382C146.493 64.6787 148.048 69.196 148.048 69.196C148.048 69.196 149.608 61.7708 151.026 57.4063C152.445 53.0418 154.987 51.3123 155.904 51.6178C156.82 51.9233 156.717 53.4455 155.8 55.5786C154.884 57.7118 152.854 63.5985 152.347 65.5298C151.839 67.4611 151.741 69.6924 152.756 69.4906C153.771 69.2887 157.322 63.0911 158.342 60.4505C159.363 57.81 160.879 55.3768 162.603 54.2584C164.327 53.14 165.751 54.5639 165.042 56.3915C163.633 59.6967 162.034 62.9173 160.252 66.0371C159.132 68.0535 158.181 70.1593 157.41 72.333C159.082 70.5509 160.845 68.8556 162.691 67.2538C165.129 65.2243 167.77 64.8205 168.577 65.5298C169.385 66.239 168.681 66.3427 166.651 67.9684C164.622 69.5942 161.589 71.531 159.161 75.4809C157.281 78.3772 155.812 81.5206 154.796 84.821C154.042 86.9875 153.054 89.0655 151.85 91.0186C151.85 91.0186 153.754 106.48 157.055 114.985C160.356 123.491 166.193 135.93 164.415 144.817C162.636 153.704 159.21 158.271 154.387 159.667C152.989 160.075 151.514 160.15 150.082 159.886C148.649 159.622 147.299 159.026 146.138 158.145" fill="#143347"/>
<mask id="mask3_1_4384" style="mask-type:luminance" maskUnits="userSpaceOnUse" x="130" y="51" width="39" height="110">
<path d="M136.116 147.556C134.752 144.44 135.92 137.621 137.284 127.883C138.648 118.144 140.011 108.209 140.011 102.95C140.011 97.6909 140.879 90.4021 139.166 88.0507C137.453 85.6993 131.217 79.3217 130.753 76.3647C130.289 73.4077 134.49 68.885 134.49 68.885C134.49 68.885 135.74 66.5445 136.831 67.7939C137.922 69.0432 137.453 70.5981 136.831 72.7803C136.209 74.9626 135.581 76.6757 135.581 76.6757C135.581 76.6757 141.037 78.3888 142.439 77.4558C143.841 76.5229 143.716 71.1873 143.618 68.574C143.416 63.4784 141.375 65.6552 139.962 68.0666C139.28 69.2232 135.287 68.5358 137.622 65.5734C139.957 62.611 142.128 59.9977 144.31 62.3382C146.493 64.6787 148.048 69.196 148.048 69.196C148.048 69.196 149.608 61.7708 151.026 57.4063C152.445 53.0418 154.987 51.3123 155.904 51.6178C156.82 51.9233 156.717 53.4455 155.8 55.5786C154.884 57.7118 152.854 63.5985 152.347 65.5298C151.839 67.4611 151.741 69.6924 152.756 69.4906C153.771 69.2887 157.322 63.0911 158.342 60.4505C159.363 57.81 160.879 55.3768 162.603 54.2584C164.327 53.14 165.751 54.5639 165.042 56.3915C163.633 59.6967 162.034 62.9173 160.252 66.0371C159.132 68.0535 158.181 70.1593 157.41 72.333C159.082 70.5509 160.845 68.8556 162.691 67.2538C165.129 65.2243 167.77 64.8205 168.577 65.5298C169.385 66.239 168.681 66.3427 166.651 67.9684C164.622 69.5942 161.589 71.531 159.161 75.4809C157.281 78.3772 155.812 81.5206 154.796 84.821C154.042 86.9875 153.054 89.0655 151.85 91.0186C151.85 91.0186 153.754 106.48 157.055 114.985C160.356 123.491 166.193 135.93 164.415 144.817C162.636 153.704 159.21 158.271 154.387 159.667C152.989 160.076 151.514 160.15 150.082 159.886C148.649 159.622 147.299 159.026 146.138 158.145" fill="white"/>
</mask>
<g mask="url(#mask3_1_4384)">
<g opacity="0.2">
<path d="M162.936 59.7198C163.034 59.7414 163.126 59.7871 163.202 59.8528C163.278 59.9185 163.337 60.0022 163.372 60.0963C163.338 60.0014 163.28 59.917 163.203 59.8511C163.127 59.7851 163.035 59.74 162.936 59.7198Z" fill="#143347"/>
<path d="M162.936 59.7198V60.9965L163.372 60.0963C163.337 60.0022 163.278 59.9185 163.202 59.8528C163.126 59.7871 163.034 59.7414 162.936 59.7198Z" fill="#143347"/>
<path d="M164.72 140.6C164.72 140.236 164.704 139.873 164.671 139.509C164.333 139.596 163.907 139.918 163.503 140.747C163.915 140.783 164.329 140.733 164.72 140.6Z" fill="#143347"/>
<path d="M162.936 138.281V140.415C163.978 138.838 163.16 138.281 162.936 138.281Z" fill="#143347"/>
<path d="M136.749 72.8134C136.558 72.8134 135.958 73.2116 136.383 74.2646C136.52 73.8227 136.667 73.3371 136.814 72.8243L136.749 72.8134Z" fill="#143347"/>
<path d="M149.842 81.4935C150.885 79.9168 150.066 79.3603 149.842 79.3603C149.619 79.3603 148.795 79.9168 149.842 81.4935Z" fill="#143347"/>
<path d="M162.707 61.4602L162.936 60.9965V59.7198C162.729 59.7198 162.036 60.189 162.707 61.4602Z" fill="#143347"/>
<path d="M149.842 66.2666C149.619 66.2666 148.8 66.8122 149.842 68.3998C150.884 66.8231 150.066 66.2666 149.842 66.2666Z" fill="#143347"/>
<path d="M139.122 87.7457C139.161 87.6774 139.184 87.6016 139.191 87.5234C139.197 87.4453 139.187 87.3666 139.16 87.2929C139.11 87.232 139.046 87.1829 138.975 87.1489C138.903 87.115 138.825 87.0971 138.746 87.0965C138.644 87.0937 138.542 87.1085 138.446 87.1401C138.669 87.4129 138.871 87.6584 139.035 87.8766C139.07 87.837 139.099 87.7929 139.122 87.7457Z" fill="#143347"/>
<path d="M152.254 80.746C152.139 80.5496 151.245 80.124 150.41 81.8371C152.292 81.9244 152.363 80.9369 152.254 80.746Z" fill="#143347"/>
<path d="M151.987 68.3889C151.965 68.0892 151.965 67.7884 151.987 67.4887C151.637 67.3796 150.999 67.4887 150.394 68.7272C150.948 68.817 151.516 68.6963 151.987 68.3889Z" fill="#143347"/>
<path d="M152.27 54.6188C152.123 54.8643 151.986 55.1317 151.845 55.4099C151.992 55.342 152.113 55.2281 152.189 55.0854C152.266 54.9427 152.295 54.779 152.27 54.6188Z" fill="#143347"/>
<path d="M134.337 74.1992C134.228 74.3847 134.299 75.334 136.061 75.2904L136.111 75.1485C135.298 73.61 134.452 74.0083 134.337 74.1992Z" fill="#143347"/>
<path d="M147.431 80.746C147.316 80.9369 147.393 81.9244 149.275 81.8371C148.44 80.124 147.546 80.5496 147.431 80.746Z" fill="#143347"/>
<path d="M160.525 61.1056C160.416 61.2966 160.486 62.2786 162.347 62.1968C161.529 60.4892 160.639 60.9092 160.525 61.1056Z" fill="#143347"/>
<path d="M149.275 68.7271C149.088 68.2884 148.782 67.9106 148.391 67.636C148.304 68.0452 148.228 68.3889 148.173 68.6507C148.533 68.7403 148.906 68.7661 149.275 68.7271Z" fill="#143347"/>
<path d="M147.764 68.438C147.677 68.2089 147.567 67.9415 147.442 67.6415C147.398 67.7911 147.406 67.9511 147.465 68.0957C147.523 68.2402 147.628 68.3608 147.764 68.438Z" fill="#143347"/>
<path d="M149.842 120.774C150.885 119.198 150.066 118.641 149.842 118.641C149.619 118.641 148.795 119.198 149.842 120.774Z" fill="#143347"/>
<path d="M149.842 105.547C149.619 105.547 148.8 106.093 149.842 107.681C150.884 106.104 150.066 105.547 149.842 105.547Z" fill="#143347"/>
<path d="M149.842 92.4538C149.619 92.4538 148.8 92.9994 149.842 94.587C150.884 93.0103 150.066 92.4538 149.842 92.4538Z" fill="#143347"/>
<path d="M139.182 113.54C139.182 113.655 139.155 113.775 139.138 113.889C139.188 113.78 139.203 113.658 139.182 113.54Z" fill="#143347"/>
<path d="M139.16 126.574C139.051 126.388 138.271 126.028 137.491 127.321H138.877C138.997 127.243 139.09 127.128 139.141 126.994C139.192 126.859 139.199 126.712 139.16 126.574Z" fill="#143347"/>
<path d="M150.432 121.101C152.314 121.205 152.385 120.218 152.276 120.01C152.167 119.803 151.245 119.405 150.432 121.101Z" fill="#143347"/>
<path d="M152.254 106.933C152.139 106.737 151.245 106.311 150.41 108.024C152.292 108.112 152.363 107.124 152.254 106.933Z" fill="#143347"/>
<path d="M150.432 94.9144C151.818 94.9908 152.221 94.478 152.292 94.1233L152.243 93.8015C152.036 93.5996 151.196 93.3159 150.432 94.9144Z" fill="#143347"/>
<path d="M161.567 126.584C161.021 126.208 160.601 126.437 160.525 126.584C160.486 126.723 160.493 126.87 160.544 127.005C160.595 127.139 160.688 127.254 160.808 127.332H161.823L161.567 126.584Z" fill="#143347"/>
<path d="M147.431 120.027C147.316 120.218 147.393 121.205 149.275 121.118C148.44 119.405 147.546 119.83 147.431 120.027Z" fill="#143347"/>
<path d="M147.431 106.933C147.316 107.124 147.393 108.112 149.275 108.024C148.44 106.311 147.546 106.737 147.431 106.933Z" fill="#143347"/>
<path d="M147.431 93.8395C147.316 94.0305 147.393 95.0179 149.275 94.9307C148.44 93.2176 147.546 93.6431 147.431 93.8395Z" fill="#143347"/>
<path d="M149.842 157.922C149.63 157.922 148.888 158.424 149.69 159.809L149.962 159.864C150.814 158.435 150.055 157.922 149.842 157.922Z" fill="#143347"/>
<path d="M136.749 140.415C137.791 138.838 136.973 138.281 136.749 138.281C136.525 138.281 135.701 138.838 136.749 140.415Z" fill="#143347"/>
<path d="M162.936 138.281C162.712 138.281 161.894 138.827 162.936 140.415V138.281Z" fill="#143347"/>
<path d="M149.842 146.961C150.885 145.385 150.066 144.828 149.842 144.828C149.619 144.828 148.795 145.385 149.842 146.961Z" fill="#143347"/>
<path d="M149.842 131.735C149.619 131.735 148.8 132.28 149.842 133.868C150.884 132.291 150.066 131.735 149.842 131.735Z" fill="#143347"/>
<path d="M152.254 159.308C152.15 159.128 151.403 158.762 150.617 159.968C151.066 160.025 151.518 160.049 151.97 160.039C152.088 159.962 152.179 159.85 152.23 159.719C152.281 159.588 152.289 159.444 152.254 159.308Z" fill="#143347"/>
<path d="M137.338 140.742C139.22 140.846 139.291 139.858 139.182 139.651C139.073 139.443 138.151 139.045 137.338 140.742Z" fill="#143347"/>
<path d="M150.432 147.289C152.314 147.392 152.385 146.405 152.276 146.198C152.167 145.99 151.245 145.592 150.432 147.289Z" fill="#143347"/>
<path d="M152.254 133.12C152.139 132.924 151.245 132.498 150.41 134.211C152.292 134.299 152.363 133.311 152.254 133.12Z" fill="#143347"/>
<path d="M160.525 152.761C160.437 152.908 160.465 153.524 161.338 153.754C161.485 153.492 161.632 153.208 161.769 152.952C161.152 152.33 160.612 152.608 160.525 152.761Z" fill="#143347"/>
<path d="M147.742 159.128C148.053 159.275 148.372 159.406 148.697 159.52C148.586 159.377 148.439 159.266 148.272 159.197C148.104 159.128 147.922 159.104 147.742 159.128Z" fill="#143347"/>
<path d="M136.182 140.742C136.056 140.466 135.892 140.209 135.696 139.978C135.696 140.235 135.652 140.485 135.636 140.736C135.818 140.749 136 140.751 136.182 140.742Z" fill="#143347"/>
<path d="M162.369 140.742C161.534 139.045 160.639 139.471 160.525 139.651C160.41 139.831 160.486 140.846 162.369 140.742Z" fill="#143347"/>
<path d="M147.431 146.214C147.316 146.405 147.393 147.392 149.275 147.305C148.44 145.592 147.546 146.018 147.431 146.214Z" fill="#143347"/>
<path d="M147.431 133.12C147.316 133.311 147.393 134.299 149.275 134.211C148.44 132.498 147.546 132.924 147.431 133.12Z" fill="#143347"/>
<path d="M137.491 127.321C137.431 127.419 137.376 127.528 137.316 127.643C137.859 127.725 138.413 127.609 138.877 127.316H137.491V127.321Z" fill="#143347"/>
<path d="M161.823 127.321H160.797C161.131 127.544 161.526 127.659 161.927 127.648L161.823 127.321Z" fill="#143347"/>
</g>
</g>
<path d="M136.116 147.556C134.752 144.44 135.92 137.621 137.284 127.883C138.647 118.144 140.011 108.209 140.011 102.95C140.011 97.6909 140.879 90.4021 139.166 88.0507C137.453 85.6993 131.217 79.3217 130.753 76.3647C130.289 73.4077 134.49 68.885 134.49 68.885C134.49 68.885 135.74 66.5445 136.831 67.7939C137.922 69.0432 137.453 70.5981 136.831 72.7803C136.209 74.9626 135.581 76.6757 135.581 76.6757C135.581 76.6757 141.037 78.3888 142.439 77.4558C143.841 76.5229 143.716 71.1873 143.618 68.574C143.416 63.4784 141.375 65.6552 139.962 68.0666C139.28 69.2232 135.287 68.5358 137.622 65.5734C139.957 62.611 142.128 59.9977 144.31 62.3382C146.493 64.6787 148.048 69.196 148.048 69.196C148.048 69.196 149.608 61.7708 151.026 57.4063C152.445 53.0418 154.987 51.3123 155.904 51.6178C156.82 51.9233 156.717 53.4455 155.8 55.5786C154.884 57.7118 152.854 63.5985 152.347 65.5298C151.839 67.4611 151.741 69.6924 152.756 69.4906C153.771 69.2887 157.322 63.0911 158.342 60.4505C159.363 57.81 160.879 55.3768 162.603 54.2584C164.327 53.14 165.751 54.5639 165.042 56.3915C163.633 59.6967 162.034 62.9173 160.252 66.0371C159.132 68.0535 158.181 70.1593 157.41 72.333C159.082 70.5509 160.845 68.8556 162.691 67.2538C165.129 65.2243 167.77 64.8205 168.577 65.5298C169.385 66.239 168.681 66.3427 166.651 67.9684C164.622 69.5942 161.589 71.531 159.161 75.4809C157.281 78.3772 155.812 81.5206 154.796 84.821C154.042 86.9875 153.054 89.0655 151.85 91.0186C151.85 91.0186 153.754 106.48 157.055 114.985C160.356 123.491 166.193 135.93 164.415 144.817C162.636 153.704 159.21 158.271 154.387 159.667C152.989 160.075 151.514 160.15 150.082 159.886C148.649 159.622 147.299 159.026 146.138 158.145" stroke="#263238" stroke-width="0.340679" stroke-linecap="round" stroke-linejoin="round"/>
<path d="M159.161 75.4808C161.599 71.52 164.649 69.5887 166.679 67.9684C168.708 66.348 169.406 66.2389 168.604 65.5297C167.802 64.8205 165.156 65.2242 162.718 67.2537C160.872 68.8555 159.109 70.5508 157.437 72.3329C158.2 70.1601 159.141 68.0543 160.252 66.0371C162.028 62.9168 163.622 59.6962 165.026 56.3915C165.735 54.5638 164.316 53.1181 162.587 54.2583C160.857 55.3985 159.341 57.8099 158.326 60.4505C157.311 63.091 153.754 69.2886 152.739 69.4905C151.725 69.6924 151.823 67.4555 152.33 65.5297C152.838 63.6039 154.873 57.7117 155.784 55.5786C156.695 53.4454 156.798 51.9233 155.887 51.6178C154.976 51.3122 152.434 53.0362 151.01 57.4062C149.586 61.7762 148.031 69.1959 148.031 69.1959C148.031 69.1959 146.476 64.6732 144.294 62.3381C142.112 60.0031 139.93 62.6109 137.605 65.5733C135.281 68.5358 139.242 69.2232 139.946 68.0666C141.359 65.6552 143.399 63.4784 143.601 68.574C143.699 71.1872 143.825 76.5174 142.423 77.4558C141.021 78.3941 135.565 76.6756 135.565 76.6756C135.565 76.6756 136.187 74.9625 136.814 72.7803C137.442 70.598 137.905 69.0377 136.814 67.7938C135.723 66.5499 134.474 68.8849 134.474 68.8849C134.474 68.8849 130.268 73.4022 130.737 76.3646C131.206 79.3271 137.436 85.7102 139.149 88.0507C140.862 90.3911 139.995 97.6908 139.995 102.95C139.995 108.209 138.631 118.144 137.267 127.882C137.267 128.013 137.229 128.133 137.213 128.259C139.368 130.523 143.759 133.769 151.185 133.518C156.16 133.349 159.684 130.845 162.069 128.09C160.486 123.382 158.501 118.815 157.028 114.996C153.727 106.491 151.823 91.0295 151.823 91.0295C153.026 89.0764 154.014 86.9983 154.769 84.8318C155.792 81.5262 157.27 78.379 159.161 75.4808Z" fill="#FFC2C2" stroke="#263238" stroke-width="0.340679" stroke-linecap="round" stroke-linejoin="round"/>
<path d="M144.223 90.4075C144.223 90.4075 143.312 86.5503 144.632 84.1117C145.327 82.725 146.471 81.6152 147.878 80.9637" stroke="#263238" stroke-width="0.340679" stroke-linecap="round" stroke-linejoin="round"/>
</svg>
