<svg width="16" height="17" viewBox="0 0 16 17" fill="none" xmlns="http://www.w3.org/2000/svg">
<path d="M13.359 11.5778C15.06 10.0598 16 8.33984 16 8.33984C16 8.33984 13 2.83984 7.99996 2.83984C7.03947 2.84236 6.08977 3.04251 5.20996 3.42784L5.97996 4.19884C6.62769 3.96409 7.31101 3.84265 7.99996 3.83984C10.12 3.83984 11.879 5.00784 13.168 6.29684C13.789 6.91992 14.3452 7.60443 14.828 8.33984C14.7706 8.42651 14.7056 8.52251 14.633 8.62784C14.298 9.10784 13.803 9.74784 13.168 10.3828C13.0033 10.5482 12.831 10.7102 12.651 10.8688L13.359 11.5778Z" fill="#5E5E5E"/>
<path d="M11.2974 9.51583C11.5205 8.89167 11.5618 8.21698 11.4165 7.57025C11.2712 6.92353 10.9452 6.33136 10.4765 5.86265C10.0078 5.39395 9.41566 5.06797 8.76893 4.92266C8.12221 4.77735 7.44751 4.81868 6.82335 5.04183L7.64635 5.86483C8.03066 5.80982 8.4225 5.84508 8.79083 5.9678C9.15915 6.09051 9.49383 6.29733 9.76834 6.57184C10.0429 6.84636 10.2497 7.18104 10.3724 7.54936C10.4951 7.91768 10.5304 8.30952 10.4754 8.69383L11.2974 9.51583ZM8.35435 10.8148L9.17635 11.6368C8.5522 11.86 7.8775 11.9013 7.23077 11.756C6.58405 11.6107 5.99188 11.2847 5.52317 10.816C5.05447 10.3473 4.72849 9.75514 4.58318 9.10841C4.43787 8.46168 4.4792 7.78699 4.70235 7.16283L5.52535 7.98583C5.47035 8.37014 5.5056 8.76198 5.62832 9.1303C5.75104 9.49862 5.95785 9.8333 6.23237 10.1078C6.50688 10.3823 6.84156 10.5892 7.20988 10.7119C7.5782 10.8346 7.97004 10.8698 8.35435 10.8148Z" fill="#5E5E5E"/>
<path d="M3.35 5.80984C3.17 5.96984 2.99733 6.13217 2.832 6.29684C2.21097 6.91992 1.65478 7.60443 1.172 8.33984L1.367 8.62784C1.702 9.10784 2.197 9.74784 2.832 10.3828C4.121 11.6718 5.881 12.8398 8 12.8398C8.716 12.8398 9.39 12.7068 10.02 12.4798L10.79 13.2518C9.91019 13.6372 8.96049 13.8373 8 13.8398C3 13.8398 0 8.33984 0 8.33984C0 8.33984 0.939 6.61884 2.641 5.10184L3.349 5.81084L3.35 5.80984ZM13.646 14.6938L1.646 2.69384L2.354 1.98584L14.354 13.9858L13.646 14.6938Z" fill="#5E5E5E"/>
</svg>
