<svg width="16" height="17" viewBox="0 0 16 17" fill="none" xmlns="http://www.w3.org/2000/svg">
<path d="M16 8.33984C16 8.33984 13 2.83984 8 2.83984C3 2.83984 0 8.33984 0 8.33984C0 8.33984 3 13.8398 8 13.8398C13 13.8398 16 8.33984 16 8.33984ZM1.173 8.33984C1.65578 7.60443 2.21197 6.91992 2.833 6.29684C4.12 5.00784 5.88 3.83984 8 3.83984C10.12 3.83984 11.879 5.00784 13.168 6.29684C13.789 6.91992 14.3452 7.60443 14.828 8.33984C14.7707 8.42651 14.7057 8.52251 14.633 8.62784C14.298 9.10784 13.803 9.74784 13.168 10.3828C11.879 11.6718 10.119 12.8398 8 12.8398C5.881 12.8398 4.121 11.6718 2.832 10.3828C2.21097 9.75977 1.65578 9.07526 1.173 8.33984Z" fill="#5E5E5E"/>
<path d="M8 5.83984C7.33696 5.83984 6.70107 6.10324 6.23223 6.57208C5.76339 7.04092 5.5 7.6768 5.5 8.33984C5.5 9.00288 5.76339 9.63877 6.23223 10.1076C6.70107 10.5765 7.33696 10.8398 8 10.8398C8.66304 10.8398 9.29893 10.5765 9.76777 10.1076C10.2366 9.63877 10.5 9.00288 10.5 8.33984C10.5 7.6768 10.2366 7.04092 9.76777 6.57208C9.29893 6.10324 8.66304 5.83984 8 5.83984ZM4.5 8.33984C4.5 7.41159 4.86875 6.52135 5.52513 5.86497C6.1815 5.20859 7.07174 4.83984 8 4.83984C8.92826 4.83984 9.8185 5.20859 10.4749 5.86497C11.1313 6.52135 11.5 7.41159 11.5 8.33984C11.5 9.2681 11.1313 10.1583 10.4749 10.8147C9.8185 11.4711 8.92826 11.8398 8 11.8398C7.07174 11.8398 6.1815 11.4711 5.52513 10.8147C4.86875 10.1583 4.5 9.2681 4.5 8.33984Z" fill="#5E5E5E"/>
</svg>
