<svg width="14" height="17" viewBox="0 0 14 17" fill="none" xmlns="http://www.w3.org/2000/svg">
<path fill-rule="evenodd" clip-rule="evenodd" d="M7.00001 0.339844C6.31001 0.339844 5.15701 0.604844 4.07201 0.899844C2.96201 1.19984 1.84301 1.55484 1.18501 1.76984C0.909897 1.8607 0.665996 2.02731 0.481322 2.25054C0.296649 2.47378 0.178693 2.74458 0.141005 3.03184C-0.454995 7.50884 0.928005 10.8268 2.60601 13.0218C3.31785 13.9606 4.16626 14.7874 5.12301 15.4748C5.50901 15.7478 5.86701 15.9568 6.17101 16.0998C6.45101 16.2318 6.75201 16.3398 7.00001 16.3398C7.24801 16.3398 7.54801 16.2318 7.82901 16.0998C8.19587 15.9224 8.54653 15.7133 8.87701 15.4748C9.83376 14.7874 10.6822 13.9606 11.394 13.0218C13.072 10.8268 14.455 7.50884 13.859 3.03184C13.8215 2.7444 13.7036 2.47339 13.5189 2.24996C13.3343 2.02653 13.0903 1.85977 12.815 1.76884C11.8598 1.45585 10.8971 1.16577 9.92801 0.898844C8.84301 0.605844 7.69001 0.339844 7.00001 0.339844ZM7.00001 5.33984C7.35425 5.33932 7.69724 5.46417 7.96824 5.69231C8.23924 5.92044 8.42076 6.23711 8.48065 6.58626C8.54054 6.9354 8.47493 7.29447 8.29544 7.59987C8.11595 7.90527 7.83417 8.13729 7.50001 8.25484L7.88501 10.2448C7.89901 10.3172 7.89684 10.3918 7.87865 10.4632C7.86045 10.5347 7.82668 10.6012 7.77976 10.6581C7.73284 10.7149 7.67392 10.7607 7.60723 10.7921C7.54054 10.8236 7.46773 10.8399 7.39401 10.8398H6.60601C6.53237 10.8397 6.45967 10.8233 6.3931 10.7918C6.32653 10.7603 6.26775 10.7145 6.22093 10.6577C6.17412 10.6009 6.14044 10.5344 6.1223 10.463C6.10416 10.3916 6.10202 10.3171 6.11601 10.2448L6.50001 8.25484C6.16584 8.13729 5.88406 7.90527 5.70457 7.59987C5.52509 7.29447 5.45948 6.9354 5.51936 6.58626C5.57925 6.23711 5.76077 5.92044 6.03177 5.69231C6.30277 5.46417 6.64577 5.33932 7.00001 5.33984Z" fill="#08436C"/>
</svg>
