<svg width="16" height="17" viewBox="0 0 16 17" fill="none" xmlns="http://www.w3.org/2000/svg">
<g clip-path="url(#clip0_180_148)">
<path d="M1.33333 16.3398C1.33333 16.3398 0 16.3398 0 15.0065C0 13.6732 1.33333 9.67318 8 9.67318C14.6667 9.67318 16 13.6732 16 15.0065C16 16.3398 14.6667 16.3398 14.6667 16.3398H1.33333ZM8 8.33984C9.06087 8.33984 10.0783 7.91842 10.8284 7.16827C11.5786 6.41813 12 5.40071 12 4.33984C12 3.27898 11.5786 2.26156 10.8284 1.51142C10.0783 0.761271 9.06087 0.339844 8 0.339844C6.93913 0.339844 5.92172 0.761271 5.17157 1.51142C4.42143 2.26156 4 3.27898 4 4.33984C4 5.40071 4.42143 6.41813 5.17157 7.16827C5.92172 7.91842 6.93913 8.33984 8 8.33984Z" fill="#08436C"/>
</g>
<defs>
<clipPath id="clip0_180_148">
<rect width="16" height="16" fill="white" transform="translate(0 0.339844)"/>
</clipPath>
</defs>
</svg>
